{
  "accessors": [
    {
      "bufferView": 2,
      "componentType": 5126,
      "count": 65532,
      "max": [
        0.5,
        0.5,
        0.13706399500370026
      ],
      "min": [
        -0.5,
        -0.5,
        0.010363999754190445
      ],
      "type": "VEC3"
    },
    {
      "bufferView": 2,
      "byteOffset": 786384,
      "componentType": 5126,
      "count": 65532,
      "max": [
        0.953083872795105,
        0.9739829897880554,
        0.9999996423721313
      ],
      "min": [
        -0.9235979318618774,
        -0.9351855516433716,
        0.22612538933753967
      ],
      "type": "VEC3"
    },
    {
      "bufferView": 3,
      "componentType": 5126,
      "count": 65532,
      "max": [
        1.0,
        0.00010216422379016876,
        0.9518949389457703,
        1.0
      ],
      "min": [
        0.2792530655860901,
        -9.765670984052122e-05,
        -0.9602175951004028,
        1.0
      ],
      "type": "VEC4"
    },
    {
      "bufferView": 1,
      "componentType": 5126,
      "count": 65532,
      "max": [
        1.0,
        1.0
      ],
      "min": [
        0.0,
        0.0
      ],
      "type": "VEC2"
    },
    {
      "bufferView": 0,
      "componentType": 5125,
      "count": 312168,
      "type": "SCALAR"
    },
    {
      "bufferView": 2,
      "byteOffset": 1572768,
      "componentType": 5126,
      "count": 65532,
      "max": [
        0.5,
        -0.008806000463664532,
        0.11440300196409225
      ],
      "min": [
        -0.5,
        -0.5,
        0.009596000425517559
      ],
      "type": "VEC3"
    },
    {
      "bufferView": 2,
      "byteOffset": 2359152,
      "componentType": 5126,
      "count": 65532,
      "max": [
        0.9434653520584106,
        0.9711226224899292,
        0.9999998807907104
      ],
      "min": [
        -0.9243847727775574,
        -0.9282105565071106,
        0.19960659742355347
      ],
      "type": "VEC3"
    },
    {
      "bufferView": 3,
      "byteOffset": 1048512,
      "componentType": 5126,
      "count": 65532,
      "max": [
        1.0,
        9.210619464283809e-05,
        0.9469786882400513,
        1.0
      ],
      "min": [
        0.3050074577331543,
        -0.00010397879668744281,
        -0.9523500204086304,
        1.0
      ],
      "type": "VEC4"
    },
    {
      "bufferView": 1,
      "byteOffset": 524256,
      "componentType": 5126,
      "count": 65532,
      "max": [
        1.0,
        0.4911940097808838
      ],
      "min": [
        0.0,
        0.0
      ],
      "type": "VEC2"
    },
    {
      "bufferView": 0,
      "byteOffset": 1248672,
      "componentType": 5125,
      "count": 318495,
      "type": "SCALAR"
    },
    {
      "bufferView": 2,
      "byteOffset": 3145536,
      "componentType": 5126,
      "count": 65532,
      "max": [
        0.5,
        0.10078299790620804,
        0.10799899697303772
      ],
      "min": [
        -0.5,
        -0.5,
        0.010631999932229519
      ],
      "type": "VEC3"
    },
    {
      "bufferView": 2,
      "byteOffset": 3931920,
      "componentType": 5126,
      "count": 65532,
      "max": [
        0.953083872795105,
        0.9547150135040283,
        0.9999998807907104
      ],
      "min": [
        -0.9486317038536072,
        -0.9365317821502686,
        0.26451265811920166
      ],
      "type": "VEC3"
    },
    {
      "bufferView": 3,
      "byteOffset": 2097024,
      "componentType": 5126,
      "count": 65532,
      "max": [
        1.0,
        9.210619464283809e-05,
        0.9486968517303467,
        1.0
      ],
      "min": [
        0.3017597496509552,
        -8.455856004729867e-05,
        -0.9533841013908386,
        1.0
      ],
      "type": "VEC4"
    },
    {
      "bufferView": 1,
      "byteOffset": 1048512,
      "componentType": 5126,
      "count": 65532,
      "max": [
        1.0,
        0.6007829904556274
      ],
      "min": [
        0.0,
        0.0
      ],
      "type": "VEC2"
    },
    {
      "bufferView": 0,
      "byteOffset": 2522652,
      "componentType": 5125,
      "count": 328920,
      "type": "SCALAR"
    },
    {
      "bufferView": 2,
      "byteOffset": 4718304,
      "componentType": 5126,
      "count": 65532,
      "max": [
        0.5,
        0.41585099697113037,
        0.12230899930000305
      ],
      "min": [
        -0.4980430006980896,
        -0.010762999765574932,
        0.009731999598443508
      ],
      "type": "VEC3"
    },
    {
      "bufferView": 2,
      "byteOffset": 5504688,
      "componentType": 5126,
      "count": 65532,
      "max": [
        0.9582229256629944,
        0.9306358695030212,
        0.9999996423721313
      ],
      "min": [
        -0.9584178328514099,
        -0.9600012898445129,
        0.25094103813171387
      ],
      "type": "VEC3"
    },
    {
      "bufferView": 3,
      "byteOffset": 3145536,
      "componentType": 5126,
      "count": 65532,
      "max": [
        1.0,
        0.0001127132200053893,
        0.9642986059188843,
        1.0
      ],
      "min": [
        0.2648172676563263,
        -7.97042521298863e-05,
        -0.9602211713790894,
        1.0
      ],
      "type": "VEC4"
    },
    {
      "bufferView": 1,
      "byteOffset": 1572768,
      "componentType": 5126,
      "count": 65532,
      "max": [
        1.0,
        0.9158509969711304
      ],
      "min": [
        0.0019570000004023314,
        0.4892370104789734
      ],
      "type": "VEC2"
    },
    {
      "bufferView": 0,
      "byteOffset": 3838332,
      "componentType": 5125,
      "count": 362106,
      "type": "SCALAR"
    },
    {
      "bufferView": 2,
      "byteOffset": 6291072,
      "componentType": 5126,
      "count": 50339,
      "max": [
        0.5,
        0.4960860013961792,
        0.13513900339603424
      ],
      "min": [
        -0.4980430006980896,
        0.20254400372505188,
        0.010053000412881374
      ],
      "type": "VEC3"
    },
    {
      "bufferView": 2,
      "byteOffset": 6895140,
      "componentType": 5126,
      "count": 50339,
      "max": [
        0.9432920217514038,
        0.9335829019546509,
        0.9999997615814209
      ],
      "min": [
        -0.9357180595397949,
        -0.9329885840415955,
        0.2606028914451599
      ],
      "type": "VEC3"
    },
    {
      "bufferView": 3,
      "byteOffset": 4194048,
      "componentType": 5126,
      "count": 50339,
      "max": [
        1.0,
        9.255778422812e-05,
        0.946953296661377,
        1.0
      ],
      "min": [
        0.3133304715156555,
        -9.671886073192582e-05,
        -0.949644148349762,
        1.0
      ],
      "type": "VEC4"
    },
    {
      "bufferView": 1,
      "byteOffset": 2097024,
      "componentType": 5126,
      "count": 50339,
      "max": [
        1.0,
        0.9960860013961792
      ],
      "min": [
        0.0019570000004023314,
        0.7025439739227295
      ],
      "type": "VEC2"
    },
    {
      "bufferView": 0,
      "byteOffset": 5286756,
      "componentType": 5125,
      "count": 245037,
      "type": "SCALAR"
    }
  ],
  "asset": {
    "extras": {
      "author": "aqsa_g (https://sketchfab.com/aqsa_g)",
      "license": "CC-BY-4.0 (http://creativecommons.org/licenses/by/4.0/)",
      "source": "https://sketchfab.com/3d-models/rocky-island-fantasy-a4b3d8038a7843b09a73b624e8323ceb",
      "title": "Rocky Island (Fantasy)"
    },
    "generator": "Sketchfab-10.85.0",
    "version": "2.0"
  },
  "bufferViews": [
    {
      "buffer": 0,
      "byteLength": 6266904,
      "name": "floatBufferViews",
      "target": 34963
    },
    {
      "buffer": 0,
      "byteLength": 2499736,
      "byteOffset": 6266904,
      "byteStride": 8,
      "name": "floatBufferViews",
      "target": 34962
    },
    {
      "buffer": 0,
      "byteLength": 7499208,
      "byteOffset": 8766640,
      "byteStride": 12,
      "name": "floatBufferViews",
      "target": 34962
    },
    {
      "buffer": 0,
      "byteLength": 4999472,
      "byteOffset": 16265848,
      "byteStride": 16,
      "name": "floatBufferViews",
      "target": 34962
    }
  ],
  "buffers": [
    {
      "byteLength": 21265320,
      "uri": "scene.bin"
    }
  ],
  "images": [
    {
      "uri": "textures/material_0_baseColor.png"
    },
    {
      "uri": "textures/material_0_normal.png"
    }
  ],
  "materials": [
    {
      "doubleSided": true,
      "name": "material_0",
      "normalTexture": {
        "index": 1
      },
      "pbrMetallicRoughness": {
        "baseColorFactor": [
          0.9484893453944411,
          0.9484893453944411,
          0.9484893453944411,
          1.0
        ],
        "baseColorTexture": {
          "index": 0
        },
        "metallicFactor": 0.0
      }
    }
  ],
  "meshes": [
    {
      "name": "Object_0",
      "primitives": [
        {
          "attributes": {
            "NORMAL": 1,
            "POSITION": 0,
            "TANGENT": 2,
            "TEXCOORD_0": 3
          },
          "indices": 4,
          "material": 0,
          "mode": 4
        }
      ]
    },
    {
      "name": "Object_1",
      "primitives": [
        {
          "attributes": {
            "NORMAL": 6,
            "POSITION": 5,
            "TANGENT": 7,
            "TEXCOORD_0": 8
          },
          "indices": 9,
          "material": 0,
          "mode": 4
        }
      ]
    },
    {
      "name": "Object_2",
      "primitives": [
        {
          "attributes": {
            "NORMAL": 11,
            "POSITION": 10,
            "TANGENT": 12,
            "TEXCOORD_0": 13
          },
          "indices": 14,
          "material": 0,
          "mode": 4
        }
      ]
    },
    {
      "name": "Object_3",
      "primitives": [
        {
          "attributes": {
            "NORMAL": 16,
            "POSITION": 15,
            "TANGENT": 17,
            "TEXCOORD_0": 18
          },
          "indices": 19,
          "material": 0,
          "mode": 4
        }
      ]
    },
    {
      "name": "Object_4",
      "primitives": [
        {
          "attributes": {
            "NORMAL": 21,
            "POSITION": 20,
            "TANGENT": 22,
            "TEXCOORD_0": 23
          },
          "indices": 24,
          "material": 0,
          "mode": 4
        }
      ]
    }
  ],
  "nodes": [
    {
      "children": [
        1
      ],
      "matrix": [
        1.0,
        0.0,
        0.0,
        0.0,
        0.0,
        2.220446049250313e-16,
        -1.0,
        0.0,
        0.0,
        1.0,
        2.220446049250313e-16,
        0.0,
        0.0,
        0.0,
        0.0,
        1.0
      ],
      "name": "Sketchfab_model"
    },
    {
      "children": [
        2,
        3,
        4,
        5,
        6
      ],
      "name": "Island.obj.cleaner.materialmerger.gles"
    },
    {
      "mesh": 0,
      "name": "Object_2"
    },
    {
      "mesh": 1,
      "name": "Object_3"
    },
    {
      "mesh": 2,
      "name": "Object_4"
    },
    {
      "mesh": 3,
      "name": "Object_5"
    },
    {
      "mesh": 4,
      "name": "Object_6"
    }
  ],
  "samplers": [
    {
      "magFilter": 9729,
      "minFilter": 9987,
      "wrapS": 10497,
      "wrapT": 10497
    }
  ],
  "scene": 0,
  "scenes": [
    {
      "name": "Sketchfab_Scene",
      "nodes": [
        0
      ]
    }
  ],
  "textures": [
    {
      "sampler": 0,
      "source": 0
    },
    {
      "sampler": 0,
      "source": 1
    }
  ]
}
